<?xml version="1.0" standalone="no"?>
<!DOCTYPE svg PUBLIC "-//W3C//DTD SVG 20010904//EN"
 "http://www.w3.org/TR/2001/REC-SVG-20010904/DTD/svg10.dtd">
<svg version="1.0" xmlns="http://www.w3.org/2000/svg"
 width="499.000000pt" height="499.000000pt" viewBox="0 0 499.000000 499.000000"
 preserveAspectRatio="xMidYMid meet">
<metadata>
Created by potrace 1.16, written by Peter Selinger 2001-2019
</metadata>
<g transform="translate(0.000000,499.000000) scale(0.100000,-0.100000)"
fill="#000000" stroke="none">
<path d="M2200 3182 c-111 -37 -194 -101 -255 -196 -143 -223 -73 -543 147
-671 157 -92 342 -97 499 -14 53 29 139 99 139 114 0 10 -122 135 -132 135 -4
0 -29 -15 -55 -34 -69 -49 -117 -66 -187 -66 -138 1 -239 98 -253 243 -18 202
144 348 329 297 20 -6 64 -29 99 -52 l62 -41 26 30 c103 122 105 125 94 141
-14 23 -109 85 -163 107 -68 27 -276 31 -350 7z"/>
<path d="M3124 3182 c-250 -87 -380 -335 -313 -597 52 -201 250 -345 475 -345
109 0 260 52 352 119 l42 31 0 205 0 205 -205 0 -205 0 0 -95 0 -95 100 0 100
0 0 -59 0 -59 -49 -21 c-62 -26 -179 -29 -237 -5 -152 62 -208 278 -110 421
86 125 246 148 386 56 l54 -36 44 49 c24 27 55 64 70 82 l25 33 -29 24 c-47
39 -117 73 -179 90 -83 21 -255 20 -321 -3z"/>
<path d="M4133 3188 c-6 -7 -23 -42 -38 -78 -14 -36 -32 -78 -39 -95 -7 -16
-36 -84 -64 -150 -28 -66 -96 -225 -151 -354 -56 -129 -101 -238 -101 -243 0
-4 51 -8 113 -8 l112 0 39 99 38 98 114 7 c63 4 147 4 188 0 l74 -7 39 -96 39
-96 112 -3 c91 -2 112 0 112 11 0 8 -22 66 -49 128 -59 137 -232 543 -294 689
l-44 105 -95 3 c-68 2 -98 -1 -105 -10z m122 -333 c7 -16 24 -59 39 -95 15
-36 31 -73 37 -82 8 -17 1 -18 -97 -18 -122 0 -116 -12 -58 124 19 44 34 85
34 91 0 6 6 17 12 23 10 10 14 10 17 0 2 -7 9 -26 16 -43z"/>
<path d="M696 3099 c-23 -18 -27 -28 -24 -62 3 -39 9 -46 93 -114 50 -40 104
-77 122 -83 43 -15 77 1 183 87 77 62 85 72 88 107 3 29 -2 44 -19 62 -37 39
-77 32 -154 -26 -38 -29 -71 -47 -78 -43 -7 4 -38 26 -71 50 -66 48 -100 54
-140 22z"/>
<path d="M545 2885 c-30 -29 -33 -82 -7 -111 10 -10 82 -66 160 -124 l141
-105 1 -352 0 -353 -169 0 c-155 0 -170 -2 -195 -21 -21 -16 -26 -29 -26 -64
0 -35 5 -48 26 -64 26 -20 37 -21 436 -21 430 0 455 2 472 45 11 30 6 70 -14
95 -19 25 -21 25 -194 28 l-176 3 0 354 0 354 23 16 c302 214 316 226 303 278
-8 32 -48 60 -86 60 -17 0 -51 -16 -86 -42 -133 -96 -228 -161 -235 -161 -4 0
-71 47 -149 105 -156 115 -181 124 -225 80z"/>
<path d="M2639 2204 c-10 -12 -10 -17 0 -23 9 -6 7 -10 -8 -14 -11 -3 -22 1
-25 8 -6 15 -154 18 -173 2 -9 -6 -13 -6 -13 1 0 5 -18 10 -40 10 -22 0 -40
-4 -40 -9 0 -6 -4 -7 -10 -4 -5 3 -10 -2 -10 -12 0 -15 -2 -14 -16 5 -26 38
-44 28 -45 -25 l-1 -48 -8 39 c-4 21 -13 42 -21 47 -22 14 -65 10 -80 -7 -11
-14 -13 -14 -21 0 -12 21 -72 21 -88 0 -20 -23 -16 -75 6 -91 27 -19 78 -13
82 10 3 16 -1 18 -25 13 -39 -9 -65 17 -41 40 19 19 68 9 68 -15 0 -33 30 -61
64 -61 17 0 37 5 43 11 8 8 13 8 17 0 14 -21 36 -11 37 17 2 23 2 24 6 5 5
-26 3 -25 59 -28 23 -1 49 -5 58 -8 10 -4 15 -3 12 1 -2 4 45 6 105 5 88 -1
111 1 116 13 7 19 39 18 47 -1 3 -8 13 -15 22 -15 13 0 15 6 9 28 -5 15 -9 38
-9 52 -1 14 -7 24 -12 23 -7 -1 -9 8 -6 22 4 21 0 25 -21 25 -13 0 -30 -7 -38
-16z"/>
<path d="M3584 2209 c-3 -5 -3 -17 0 -27 7 -22 -20 -62 -31 -46 -5 6 -15 14
-23 17 -10 4 -8 6 8 6 12 1 22 7 22 15 0 12 -25 15 -145 15 -126 -1 -145 -3
-145 -17 0 -14 -2 -13 -13 2 -20 28 -77 18 -97 -16 -13 -25 -13 -31 0 -55 l16
-28 147 0 c120 0 149 3 157 15 8 13 10 12 10 -2 0 -20 17 -23 40 -8 8 5 19 5
25 0 5 -4 23 -6 38 -3 21 4 25 8 15 14 -10 7 -9 9 5 9 10 0 20 -7 23 -15 8
-20 34 -19 34 2 0 15 1 15 18 0 23 -21 66 -22 86 -1 19 18 21 75 4 92 -18 18
-73 14 -91 -6 -10 -10 -17 -29 -17 -43 -1 -23 -1 -23 -12 -4 -7 11 -13 34 -14
50 -1 17 -2 33 -3 36 -2 10 -51 8 -57 -2z"/>
<path d="M3967 2194 c-4 -4 -8 -30 -8 -58 l-2 -51 -7 40 c-4 22 -8 33 -9 25
-1 -9 -7 -5 -17 13 -8 15 -20 27 -27 27 -14 0 -69 -105 -60 -114 12 -12 33 -6
33 9 0 8 8 15 19 15 10 0 24 -7 31 -15 7 -8 25 -15 41 -15 25 0 29 4 30 28 0
15 3 21 6 15 2 -7 10 -13 16 -13 7 0 24 -11 39 -25 30 -27 43 -32 35 -12 -3 9
27 12 134 10 107 -1 143 2 153 13 12 11 16 11 26 -1 27 -32 43 -12 52 63 1 6
7 12 15 12 9 0 13 -14 13 -45 0 -32 4 -45 14 -45 18 0 28 30 22 64 -3 18 0 26
10 26 8 0 14 7 14 15 0 12 -14 15 -65 15 -64 0 -65 0 -65 -27 l-1 -28 -22 26
c-20 25 -28 27 -109 28 -78 2 -88 0 -88 -16 -1 -17 -1 -17 -11 0 -8 14 -22 17
-67 16 -72 -1 -92 -7 -92 -25 0 -10 -8 -6 -23 11 -12 15 -26 23 -30 19z"/>
<path d="M2902 2133 c3 -58 3 -58 36 -61 18 -2 40 2 48 9 11 9 18 9 26 1 7 -7
32 -12 56 -12 41 0 44 2 38 23 -3 12 -6 30 -6 40 0 12 -8 17 -27 18 l-28 1 29
7 c49 10 44 31 -8 31 l-46 0 -1 -37 c-1 -22 -3 -29 -6 -18 -9 37 -34 55 -75
55 l-39 0 3 -57z"/>
<path d="M4070 1946 c0 -88 23 -118 88 -114 39 3 49 7 63 33 24 43 15 145 -12
145 -17 0 -19 -8 -19 -65 0 -53 -3 -66 -19 -75 -25 -13 -27 -13 -45 6 -11 10
-16 34 -16 75 0 52 -2 59 -20 59 -18 0 -20 -7 -20 -64z"/>
<path d="M4409 2003 c-1 -5 0 -23 1 -42 1 -22 -2 -31 -9 -27 -7 4 -11 -1 -11
-14 0 -12 5 -18 10 -15 6 4 10 -10 10 -34 0 -34 3 -41 20 -41 18 0 26 20 21
53 0 4 7 7 17 7 9 0 34 3 54 6 36 6 37 6 40 -27 l3 -34 62 -3 c57 -3 63 -1 79
23 14 21 15 31 5 51 -6 14 -9 35 -5 48 9 37 -24 58 -87 54 -47 -3 -54 -6 -60
-28 -4 -14 -7 -20 -8 -13 -2 28 -33 43 -87 43 -30 0 -54 -3 -55 -7z"/>
</g>
</svg>
