<?xml version="1.0" standalone="no"?>
<!DOCTYPE svg PUBLIC "-//W3C//DTD SVG 20010904//EN"
 "http://www.w3.org/TR/2001/REC-SVG-20010904/DTD/svg10.dtd">
<svg version="1.0" xmlns="http://www.w3.org/2000/svg"
 width="48.000000pt" height="48.000000pt" viewBox="0 0 48.000000 48.000000"
 preserveAspectRatio="xMidYMid meet">
<metadata>
Created by potrace 1.16, written by Peter Selinger 2001-2019
</metadata>
<g transform="translate(0.000000,48.000000) scale(0.100000,-0.100000)"
fill="#000000" stroke="none">
<path d="M123 400 c-88 -53 -84 -208 6 -255 35 -17 113 -20 143 -4 18 9 27 5
67 -35 26 -25 54 -46 64 -46 30 0 18 33 -29 81 -40 40 -44 49 -35 67 16 30 13
108 -4 143 -23 44 -71 69 -130 69 -32 0 -62 -7 -82 -20z m158 -49 c24 -24 29
-38 29 -76 0 -38 -5 -52 -29 -76 -42 -42 -110 -42 -152 0 -24 24 -29 38 -29
76 0 66 39 105 105 105 38 0 52 -5 76 -29z"/>
</g>
</svg>
