<?xml version="1.0" standalone="no"?>
<!DOCTYPE svg PUBLIC "-//W3C//DTD SVG 20010904//EN"
 "http://www.w3.org/TR/2001/REC-SVG-20010904/DTD/svg10.dtd">
<svg version="1.0" xmlns="http://www.w3.org/2000/svg"
 width="50.000000pt" height="50.000000pt" viewBox="0 0 50.000000 50.000000"
 preserveAspectRatio="xMidYMid meet">
<metadata>
Created by potrace 1.16, written by Peter Selinger 2001-2019
</metadata>
<g transform="translate(0.000000,50.000000) scale(0.100000,-0.100000)"
fill="#000000" stroke="none">
<path d="M264 486 c-17 -8 -44 -30 -59 -50 -86 -113 5 -276 147 -263 153 13
201 207 75 301 -34 25 -121 32 -163 12z m120 -30 c69 -29 101 -106 71 -170
-62 -130 -249 -88 -247 56 1 47 33 95 76 114 40 17 59 17 100 0z"/>
<path d="M77 182 c-76 -77 -77 -78 -77 -130 l0 -52 55 0 55 0 0 40 0 40 40 0
40 0 0 40 c0 38 2 40 30 40 20 0 30 5 30 15 0 11 -12 15 -45 15 l-45 0 0 -40
0 -40 -40 0 -40 0 0 -40 c0 -36 -2 -40 -25 -40 -21 0 -25 5 -25 28 0 21 18 45
75 102 72 71 90 100 62 100 -7 0 -47 -35 -90 -78z"/>
</g>
</svg>
